<svg xmlns="http://www.w3.org/2000/svg" viewBox="0 0 186 171" width="186" height="171">
	<style>
		tspan { white-space:pre }
		.shp0 { fill: #f0b90b } 
		.shp1 { fill: #fffdfa } 
		.shp2 { opacity: 0.102;mix-blend-mode: multiply;fill: none;stroke: #191326;stroke-width: 3 } 
		.shp3 { fill: #f7941d } 
		.shp4 { opacity: 0.2;mix-blend-mode: multiply;fill: none;stroke: #191326;stroke-width: 2.837 } 
	</style>
	<g id="BNB">
		<path id="Layer" class="shp0" d="M46.5 93C20.79 93 0 72.21 0 46.5C0 20.79 20.79 0 46.5 0C72.21 0 93 20.79 93 46.5C93 72.21 72.21 93 46.5 93Z" />
		<path id="Layer" fill-rule="evenodd" class="shp1" d="M29.16 46.5L22.04 53.66L14.88 46.5L22.04 39.34L29.16 46.5ZM34.3 41.41L27.13 34.25L46.5 14.88L53.67 22.04L65.92 34.25L58.75 41.41L46.5 29.16L34.3 41.41ZM78.12 46.5L71.01 53.66L63.84 46.5L70.96 39.34L78.12 46.5ZM58.75 51.59L65.92 58.7L46.5 78.12L27.13 58.75L34.25 51.59L46.5 63.84L58.75 51.59ZM46.5 53.66L39.34 46.5L46.5 39.34L53.66 46.5L46.5 53.66Z" />
		<path id="Layer" class="shp2" d="M46.5 90.59C22.12 90.59 2.41 70.88 2.41 46.5C2.41 22.12 22.12 2.41 46.5 2.41C70.88 2.41 90.59 22.12 90.59 46.5C90.59 70.88 70.88 90.59 46.5 90.59Z" />
	</g>
	<g id="btcb">
		<path id="Layer" class="shp3" d="M164.21 109.5C156.23 141.69 123.6 161.2 91.5 153.21C59.4 145.23 39.8 112.6 47.78 80.5C55.76 48.31 88.31 28.8 120.5 36.79C152.69 44.85 172.2 77.4 164.21 109.5L164.21 109.5Z" />
		<path id="Layer" fill-rule="evenodd" class="shp1" d="M132 86.08C131.11 91.93 127.92 94.77 123.66 95.66C129.51 98.76 132.53 103.46 129.69 111.62C126.14 121.73 117.72 122.61 106.46 120.49L103.71 131.39L97.15 129.71L99.81 118.98C98.12 118.62 96.35 118.18 94.58 117.65L91.91 128.47L85.35 126.78L88.1 115.88L83.4 114.63L74.8 112.51L78.08 104.97C78.08 104.97 82.96 106.21 82.87 106.12C84.73 106.57 85.53 105.32 85.88 104.53L90.23 87.23L93.33 74.91C93.42 73.49 92.89 71.81 90.23 71.1L85.44 69.94L87.22 62.94L96.26 65.24C97.59 65.6 99.01 65.86 100.43 66.22L103.09 55.4L109.65 57.08L106.99 67.73L112.22 68.97L114.88 58.42L121.44 60.1L118.78 70.92C127.12 73.84 133.15 78.1 132 86.08L132 86.08ZM90.94 87.41C90.76 87.32 90.5 87.32 90.23 87.23C90.41 87.32 90.67 87.32 90.94 87.41ZM100.25 95.39L96.62 109.85C101.14 110.91 114.88 115.35 116.92 107.19C119.05 98.67 104.77 96.46 100.25 95.39ZM105.22 75.62L101.94 88.74C105.66 89.63 117.1 93.44 118.96 85.99C120.91 78.19 108.94 76.5 105.22 75.62Z" />
		<path id="Layer" class="shp4" d="M106 153.04C73.9 153.04 47.96 127.1 47.96 95C47.96 62.9 73.9 36.96 106 36.96C138.1 36.96 164.04 62.9 164.04 95C164.04 127.1 138.1 153.04 106 153.04Z" />
	</g>
</svg>