<svg xmlns="http://www.w3.org/2000/svg" viewBox="0 0 186 171" width="186" height="171">
	<style>
		tspan { white-space:pre }
		.shp0 { fill: #f0b90b } 
		.shp1 { fill: #fffdfa } 
		.shp2 { opacity: 0.2;mix-blend-mode: multiply;fill: none;stroke: #191326;stroke-width: 2.837 } 
	</style>
	<g id="BUSD">
		<path id="Layer" class="shp0" d="M93 148C58.16 148 30 119.84 30 85C30 50.16 58.16 22 93 22C127.84 22 156 50.16 156 85C156 119.84 127.84 148 93 148Z" />
		<path id="Layer" fill-rule="evenodd" class="shp1" d="M93.03 42.16L103.73 52.86L76.89 79.7L66.19 69L93.03 42.16ZM66.21 101.07L109.1 58.18L119.8 68.88L76.91 111.77L66.21 101.07ZM135.84 84.95L92.95 127.84L82.25 117.14L125.14 74.25L135.84 84.95ZM50.16 85.02L60.86 74.32L71.56 85.02L60.86 95.72L50.16 85.02Z" />
		<path id="Layer" class="shp2" d="M93 145.95C59.3 145.95 32.05 118.7 32.05 85C32.05 51.3 59.3 24.05 93 24.05C126.7 24.05 153.95 51.3 153.95 85C153.95 118.7 126.7 145.95 93 145.95Z" />
	</g>
</svg>