<svg xmlns="http://www.w3.org/2000/svg" viewBox="0 0 186 171" width="186" height="171">
	<style>
		tspan { white-space:pre }
		.shp0 { fill: #f0b90b } 
		.shp1 { fill: #fffdfa } 
		.shp2 { opacity: 0.102;mix-blend-mode: multiply;fill: none;stroke: #191326;stroke-width: 3 } 
		.shp3 { fill: #191326 } 
		.shp4 { fill: #e6007a } 
		.shp5 { opacity: 0.2;mix-blend-mode: multiply;fill: none;stroke: #191326;stroke-width: 2.837 } 
	</style>
	<g id="BNB">
		<path id="Layer" class="shp0" d="M46.5 93C20.79 93 0 72.21 0 46.5C0 20.79 20.79 0 46.5 0C72.21 0 93 20.79 93 46.5C93 72.21 72.21 93 46.5 93Z" />
		<path id="Layer" fill-rule="evenodd" class="shp1" d="M29.16 46.5L22.04 53.66L14.88 46.5L22.04 39.34L29.16 46.5ZM34.3 41.41L27.13 34.25L46.5 14.88L53.67 22.04L65.92 34.25L58.75 41.41L46.5 29.16L34.3 41.41ZM78.12 46.5L71.01 53.66L63.84 46.5L70.96 39.34L78.12 46.5ZM58.75 51.59L65.92 58.7L46.5 78.12L27.13 58.75L34.25 51.59L46.5 63.84L58.75 51.59ZM46.5 53.66L39.34 46.5L46.5 39.34L53.66 46.5L46.5 53.66Z" />
		<path id="Layer" class="shp2" d="M46.5 90.59C22.12 90.59 2.41 70.88 2.41 46.5C2.41 22.12 22.12 2.41 46.5 2.41C70.88 2.41 90.59 22.12 90.59 46.5C90.59 70.88 70.88 90.59 46.5 90.59Z" />
	</g>
	<g id="dot">
		<path id="Layer" class="shp1" d="M116.5 159C83.6 159 57 132.4 57 99.5C57 66.6 83.6 40 116.5 40C149.4 40 176 66.6 176 99.5C176 132.4 149.4 159 116.5 159Z" />
		<path id="Layer" class="shp3" d="M116.5 64.29C101.94 64.29 90.04 76.12 90.04 90.75C90.04 93.69 90.53 96.56 91.44 99.36C92.07 101.25 94.17 102.3 96.13 101.67C98.02 101.04 99.07 98.94 98.44 96.98C98.25 96.44 98.08 95.89 97.94 95.33C97.8 94.77 97.69 94.2 97.6 93.63C97.51 93.07 97.45 92.49 97.42 91.92C97.38 91.34 97.37 90.77 97.39 90.19C97.67 80.32 105.65 72.2 115.52 71.71C126.51 71.15 135.61 79.9 135.61 90.75C135.61 100.9 127.63 109.23 117.62 109.79C117.62 109.79 113.91 110 112.09 110.28L109.99 110.63C109.78 110.7 109.57 110.49 109.64 110.28L110.27 107.2L113.7 91.38C114.12 89.42 112.86 87.46 110.9 87.04C108.94 86.62 106.98 87.88 106.56 89.84L98.23 128.76C97.81 130.72 99.07 132.68 101.03 133.1C102.99 133.52 104.95 132.26 105.37 130.3C105.44 129.88 106.56 124.77 106.56 124.77C107.4 120.85 110.62 117.98 114.4 117.49C115.24 117.35 118.53 117.14 118.53 117.14C132.18 116.09 142.96 104.68 142.96 90.75C142.96 76.12 131.06 64.29 116.5 64.29L116.5 64.29Z" />
		<path id="Layer" class="shp4" d="M118.39 125.19C116.01 124.7 113.63 126.17 113.14 128.62C112.65 131 114.12 133.38 116.57 133.87C118.95 134.36 121.33 132.89 121.82 130.44C122.31 127.99 120.84 125.68 118.39 125.19Z" />
		<path id="Layer" class="shp5" d="M116.5 157.06C84.67 157.06 58.94 131.33 58.94 99.5C58.94 67.67 84.67 41.94 116.5 41.94C148.33 41.94 174.06 67.67 174.06 99.5C174.06 131.33 148.33 157.06 116.5 157.06Z" />
	</g>
</svg>