<svg xmlns="http://www.w3.org/2000/svg" viewBox="0 0 186 171" width="186" height="171">
	<style>
		tspan { white-space:pre }
		.shp0 { fill: #fffdfa } 
		.shp1 { fill: #191326 } 
		.shp2 { fill: #e6007a } 
		.shp3 { opacity: 0.2;mix-blend-mode: multiply;fill: none;stroke: #191326;stroke-width: 2.837 } 
	</style>
	<g id="dot">
		<path id="Layer" class="shp0" d="M93.5 144C60.6 144 34 117.4 34 84.5C34 51.6 60.6 25 93.5 25C126.4 25 153 51.6 153 84.5C153 117.4 126.4 144 93.5 144Z" />
		<path id="Layer" class="shp1" d="M93.5 49.29C78.94 49.29 67.04 61.12 67.04 75.75C67.04 78.69 67.53 81.56 68.44 84.36C69.07 86.25 71.17 87.3 73.13 86.67C75.02 86.04 76.07 83.94 75.44 81.98C75.25 81.44 75.08 80.89 74.94 80.33C74.8 79.77 74.69 79.2 74.6 78.63C74.51 78.07 74.45 77.49 74.42 76.92C74.38 76.34 74.37 75.77 74.39 75.19C74.67 65.32 82.65 57.2 92.52 56.71C103.51 56.15 112.61 64.9 112.61 75.75C112.61 85.9 104.63 94.23 94.62 94.79C94.62 94.79 90.91 95 89.09 95.28L86.99 95.63C86.78 95.7 86.57 95.49 86.64 95.28L87.27 92.2L90.7 76.38C91.12 74.42 89.86 72.46 87.9 72.04C85.94 71.62 83.98 72.88 83.56 74.84L75.23 113.76C74.81 115.72 76.07 117.68 78.03 118.1C79.99 118.52 81.95 117.26 82.37 115.3C82.44 114.88 83.56 109.77 83.56 109.77C84.4 105.85 87.62 102.98 91.4 102.49C92.24 102.35 95.53 102.14 95.53 102.14C109.18 101.09 119.96 89.68 119.96 75.75C119.96 61.12 108.06 49.29 93.5 49.29L93.5 49.29Z" />
		<path id="Layer" class="shp2" d="M95.39 110.19C93.01 109.7 90.63 111.17 90.14 113.62C89.65 116 91.12 118.38 93.57 118.87C95.95 119.36 98.33 117.89 98.82 115.44C99.31 112.99 97.84 110.68 95.39 110.19Z" />
		<path id="Layer" class="shp3" d="M93.5 142.06C61.67 142.06 35.94 116.33 35.94 84.5C35.94 52.67 61.67 26.94 93.5 26.94C125.33 26.94 151.06 52.67 151.06 84.5C151.06 116.33 125.33 142.06 93.5 142.06Z" />
	</g>
</svg>