<svg xmlns="http://www.w3.org/2000/svg" viewBox="0 0 186 171" width="186" height="171">
	<style>
		tspan { white-space:pre }
		.shp0 { fill: #fffdfa } 
		.shp1 { fill: #191326 } 
		.shp2 { fill: #e6007a } 
		.shp3 { opacity: 0.2;mix-blend-mode: multiply;fill: none;stroke: #191326;stroke-width: 2.837 } 
		.shp4 { fill: #9787c9 } 
		.shp5 { fill: #483674 } 
		.shp6 { fill: #fac24b } 
		.shp7 { fill: #fc5454 } 
		.shp8 { fill: #362751 } 
		.shp9 { fill: #bbd4ff } 
	</style>
	<g id="dot">
		<path id="Layer" class="shp0" d="M46.5 91C22.44 91 3 71.56 3 47.5C3 23.44 22.44 4 46.5 4C70.56 4 90 23.44 90 47.5C90 71.56 70.56 91 46.5 91Z" />
		<path id="Layer" class="shp1" d="M46.5 21.76C35.86 21.76 27.16 30.41 27.16 41.1C27.16 43.25 27.51 45.35 28.18 47.4C28.64 48.78 30.17 49.55 31.61 49.09C32.99 48.63 33.76 47.09 33.3 45.66C33.16 45.26 33.03 44.86 32.93 44.45C32.83 44.04 32.75 43.63 32.68 43.21C32.62 42.8 32.57 42.38 32.55 41.96C32.52 41.54 32.52 41.11 32.53 40.69C32.73 33.48 38.57 27.54 45.78 27.18C53.82 26.77 60.47 33.17 60.47 41.1C60.47 48.52 54.64 54.61 47.32 55.02C47.32 55.02 44.61 55.18 43.28 55.38L41.74 55.64C41.59 55.69 41.43 55.54 41.48 55.38L41.94 53.13L44.45 41.56C44.76 40.13 43.84 38.7 42.41 38.39C40.97 38.08 39.54 39 39.23 40.44L33.14 68.89C32.84 70.32 33.76 71.76 35.19 72.06C36.62 72.37 38.06 71.45 38.36 70.02C38.41 69.71 39.23 65.97 39.23 65.97C39.85 63.11 42.2 61.01 44.96 60.65C45.58 60.55 47.98 60.4 47.98 60.4C57.96 59.63 65.84 51.29 65.84 41.1C65.84 30.41 57.15 21.76 46.5 21.76L46.5 21.76Z" />
		<path id="Layer" class="shp2" d="M47.88 66.28C46.14 65.92 44.4 67 44.04 68.79C43.69 70.53 44.76 72.27 46.55 72.63C48.29 72.99 50.03 71.91 50.39 70.12C50.75 68.33 49.67 66.64 47.88 66.28Z" />
		<path id="Layer" class="shp3" d="M46.5 89.58C23.23 89.58 4.42 70.77 4.42 47.5C4.42 24.23 23.23 5.42 46.5 5.42C69.77 5.42 88.58 24.23 88.58 47.5C88.58 70.77 69.77 89.58 46.5 89.58Z" />
	</g>
	<g id="Layer 1">
		<path id="&lt;Path&gt;" class="shp4" d="M186 106C186 141.9 156.9 171 121 171C85.1 171 56 141.9 56 106C56 70.1 85.1 41 121 41C156.9 41 186 70.1 186 106Z" />
		<g id="&lt;Group&gt;">
			<g id="&lt;Group&gt;">
				<path id="&lt;Path&gt;" class="shp5" d="M144.03 149.68L90.94 149.68L90.94 59.51L150.6 59.51L150.6 143.1C150.6 146.73 147.66 149.68 144.03 149.68Z" />
			</g>
			<g id="&lt;Group&gt;">
				<path id="&lt;Path&gt;" class="shp6" d="M112.8 116.91L108.46 116.91L108.46 112.57L103.88 112.57L103.88 116.91L99.54 116.91L99.54 121.48L103.88 121.48L103.88 125.82L108.46 125.82L108.46 121.48L112.8 121.48L112.8 116.91Z" />
			</g>
			<path id="&lt;Path&gt;" class="shp7" d="M132.22 125.94L129.54 125.94C128.76 125.94 128.12 125.3 128.12 124.52L128.12 121.84C128.12 121.06 128.76 120.42 129.54 120.42L132.22 120.42C133.01 120.42 133.64 121.06 133.64 121.84L133.64 124.52C133.64 125.3 133.01 125.94 132.22 125.94Z" />
			<path id="&lt;Path&gt;" class="shp8" d="M99.57 99.94L99.57 69.84C99.57 69 100.25 68.32 101.09 68.32L141.45 68.32C142.29 68.32 142.97 69 142.97 69.84L142.97 99.94C142.97 100.78 142.29 101.46 141.45 101.46L101.09 101.46C100.25 101.46 99.57 100.78 99.57 99.94Z" />
			<path id="&lt;Path&gt;" class="shp8" d="M138.27 97.68L104.27 97.68C103.77 97.68 103.36 97.27 103.36 96.77L103.36 73.01C103.36 72.51 103.77 72.1 104.27 72.1L138.27 72.1C138.77 72.1 139.18 72.51 139.18 73.01L139.18 96.77C139.18 97.27 138.77 97.68 138.27 97.68Z" />
			<path id="&lt;Path&gt;" class="shp9" d="M104.94 97.68L116.79 97.68L139.18 75.29L139.18 73.67C139.17 72.81 138.48 72.11 137.62 72.1L125.4 72.1L103.36 94.14L103.36 96.1C103.36 96.97 104.07 97.68 104.94 97.68Z" />
			<path id="&lt;Path&gt;" class="shp9" d="M139.16 85.27L126.75 97.68L134.98 97.68L139.16 93.5L139.16 85.27Z" />
			<path id="&lt;Compound Path&gt;" fill-rule="evenodd" class="shp8" d="M151.62 61.32L151.62 140.62C151.62 147.71 145.87 153.47 138.78 153.47L92.95 153.47C91.45 153.47 90.24 152.25 90.24 150.76L90.24 61.32C90.24 59.83 91.45 58.62 92.95 58.62L148.92 58.62C150.41 58.62 151.62 59.83 151.62 61.32ZM147.84 64.89C147.84 63.52 146.72 62.4 145.35 62.4L96.52 62.4C95.14 62.4 94.03 63.52 94.03 64.89L94.03 147.19C94.03 148.57 95.14 149.68 96.52 149.68L138.05 149.68C143.46 149.68 147.84 145.3 147.84 139.89L147.84 64.89Z" />
			<path id="&lt;Path&gt;" class="shp7" d="M139.16 117.66C139.16 119.19 137.92 120.42 136.4 120.42C134.87 120.42 133.64 119.19 133.64 117.66C133.64 116.14 134.87 114.91 136.4 114.91C137.92 114.91 139.16 116.14 139.16 117.66Z" />
		</g>
	</g>
</svg>