<svg version="1.2" baseProfile="tiny-ps" xmlns="http://www.w3.org/2000/svg" viewBox="0 0 186 171" width="186" height="171">
	<title>gme-ada-svg</title>
	<defs>
		<linearGradient id="grd1" gradientUnits="userSpaceOnUse"  x1="6" y1="8" x2="93" y2="95">
			<stop offset="0.245" stop-color="#f16154"  />
			<stop offset="0.693" stop-color="#ed8533"  />
		</linearGradient>
	</defs>
	<style>
		tspan { white-space:pre }
		.shp0 { fill: url(#grd1) } 
		.shp1 { fill: #ffffff } 
		.shp2 { opacity: 0.2;mix-blend-mode: multiply;fill: none;stroke: #191326;stroke-width: 2.837 } 
		.shp3 { fill: #9787c9 } 
		.shp4 { fill: #483674 } 
		.shp5 { fill: #fac24b } 
		.shp6 { fill: #fc5454 } 
		.shp7 { fill: #362751 } 
		.shp8 { fill: #bbd4ff } 
	</style>
	<g id="sxp">
		<path id="Layer" class="shp0" d="M49.5 95C73.52 95 93 75.52 93 51.5C93 27.48 73.52 8 49.5 8C25.48 8 6 27.48 6 51.5C6 75.52 25.48 95 49.5 95Z" />
		<path id="Layer" fill-rule="evenodd" class="shp1" d="M19.6 52.79C19.51 54.16 20.08 55.96 20.92 57.64C21.35 58.56 21.97 59.39 22.58 60.19C22.97 60.76 23.28 60.76 23.81 60.32L24.07 60.05L25.65 58.42L27.92 56.09L30.29 53.58L31.42 52.43L33.83 49.83L36.24 47.41L38.91 44.64L41.41 42.18L44.6 38.82L46.62 36.85L49.28 34.11L51.65 31.82L56.81 26.62C56.9 26.49 57.03 26.41 57.12 26.27C57.52 25.74 57.56 25.65 57.03 25.25C56.24 24.68 55.42 24.07 54.49 23.62C52.31 22.62 49.99 22.31 47.58 22.62C46.91 22.69 46.26 22.83 45.61 23.02C44.97 23.2 44.34 23.44 43.74 23.74C43.14 24.03 42.56 24.37 42.01 24.76C41.47 25.15 40.96 25.58 40.48 26.05L36.29 30.28L34.14 32.43L31.86 34.68L29.76 36.8L26.47 40.05L23.98 42.66C23.5 43.14 22.97 43.62 22.54 44.15C20.56 46.49 19.65 49.17 19.6 52.79L19.6 52.79ZM79.28 53.97C79.45 52.43 79.28 51.25 79.41 50.85C79.32 50.28 79.02 48.12 77.48 45.78C76.91 44.9 76.61 44.55 74.89 42.84L67.33 35.21C66.06 33.89 64.56 33.23 62.72 33.32C61.11 33.37 59.7 33.89 58.65 35.17L58.39 35.43L55.59 38.16L50.29 43.41L47.84 45.92L45.21 48.47L42.06 51.6L28.53 65.12C28.05 65.6 28.01 65.64 28.53 66.18L32.25 69.88C33.04 70.62 33.92 71.15 34.97 71.33C35.98 71.51 36.98 71.55 37.99 71.24C38.69 71.02 39.39 70.71 39.96 70.18L42.98 67.23L45.12 65.16L49.33 60.98L52.83 57.63L57.6 53L62.07 48.64C62.72 47.98 63.34 48.07 63.82 48.82C64.7 50.18 65.18 51.68 64.96 53.31C64.78 54.68 64.3 55.96 63.34 56.97L59.92 60.41L57.47 62.83L54.32 66L53.84 66.52L52.79 67.58L50.47 69.88L48.01 72.39C47.97 72.48 47.89 72.52 47.8 72.61L45.17 75.16L43.94 76.39L41.84 78.51C41.45 78.95 41.45 79.21 41.93 79.57C42.77 80.14 43.59 80.75 44.52 81.2C46.74 82.26 49.15 82.48 51.6 82.21C54.06 81.95 56.21 80.94 58.05 79.3L61.9 75.52L67.33 70.05L69.73 67.63L72.49 64.94L75.2 62.12C76.3 60.93 76.82 60.32 77.21 59.75C77.57 59.18 78.93 57.05 79.28 53.97Z" />
		<path id="Layer" class="shp2" d="M49.5 93.58C26.23 93.58 7.42 74.77 7.42 51.5C7.42 28.23 26.23 9.42 49.5 9.42C72.77 9.42 91.58 28.23 91.58 51.5C91.58 74.77 72.77 93.58 49.5 93.58Z" />
	</g>
	<g id="Layer 1">
		<path id="&lt;Path&gt;" class="shp3" d="M186 106C186 141.9 156.9 171 121 171C85.1 171 56 141.9 56 106C56 70.1 85.1 41 121 41C156.9 41 186 70.1 186 106Z" />
		<g id="&lt;Group&gt;">
			<g id="&lt;Group&gt;">
				<path id="&lt;Path&gt;" class="shp4" d="M144.03 149.68L90.94 149.68L90.94 59.51L150.6 59.51L150.6 143.1C150.6 146.73 147.66 149.68 144.03 149.68Z" />
			</g>
			<g id="&lt;Group&gt;">
				<path id="&lt;Path&gt;" class="shp5" d="M112.8 116.91L108.46 116.91L108.46 112.57L103.88 112.57L103.88 116.91L99.54 116.91L99.54 121.48L103.88 121.48L103.88 125.82L108.46 125.82L108.46 121.48L112.8 121.48L112.8 116.91Z" />
			</g>
			<path id="&lt;Path&gt;" class="shp6" d="M132.22 125.94L129.54 125.94C128.76 125.94 128.12 125.3 128.12 124.52L128.12 121.84C128.12 121.06 128.76 120.42 129.54 120.42L132.22 120.42C133.01 120.42 133.64 121.06 133.64 121.84L133.64 124.52C133.64 125.3 133.01 125.94 132.22 125.94Z" />
			<path id="&lt;Path&gt;" class="shp7" d="M99.57 99.94L99.57 69.84C99.57 69 100.25 68.32 101.09 68.32L141.45 68.32C142.29 68.32 142.97 69 142.97 69.84L142.97 99.94C142.97 100.78 142.29 101.46 141.45 101.46L101.09 101.46C100.25 101.46 99.57 100.78 99.57 99.94Z" />
			<path id="&lt;Path&gt;" class="shp7" d="M138.27 97.68L104.27 97.68C103.77 97.68 103.36 97.27 103.36 96.77L103.36 73.01C103.36 72.51 103.77 72.1 104.27 72.1L138.27 72.1C138.77 72.1 139.18 72.51 139.18 73.01L139.18 96.77C139.18 97.27 138.77 97.68 138.27 97.68Z" />
			<path id="&lt;Path&gt;" class="shp8" d="M104.94 97.68L116.79 97.68L139.18 75.29L139.18 73.67C139.17 72.81 138.48 72.11 137.62 72.1L125.4 72.1L103.36 94.14L103.36 96.1C103.36 96.97 104.07 97.68 104.94 97.68Z" />
			<path id="&lt;Path&gt;" class="shp8" d="M139.16 85.27L126.75 97.68L134.98 97.68L139.16 93.5L139.16 85.27Z" />
			<path id="&lt;Compound Path&gt;" fill-rule="evenodd" class="shp7" d="M151.62 61.32L151.62 140.62C151.62 147.71 145.87 153.47 138.78 153.47L92.95 153.47C91.45 153.47 90.24 152.25 90.24 150.76L90.24 61.32C90.24 59.83 91.45 58.62 92.95 58.62L148.92 58.62C150.41 58.62 151.62 59.83 151.62 61.32ZM147.84 64.89C147.84 63.52 146.72 62.4 145.35 62.4L96.52 62.4C95.14 62.4 94.03 63.52 94.03 64.89L94.03 147.19C94.03 148.57 95.14 149.68 96.52 149.68L138.05 149.68C143.46 149.68 147.84 145.3 147.84 139.89L147.84 64.89Z" />
			<path id="&lt;Path&gt;" class="shp6" d="M139.16 117.66C139.16 119.19 137.92 120.42 136.4 120.42C134.87 120.42 133.64 119.19 133.64 117.66C133.64 116.14 134.87 114.91 136.4 114.91C137.92 114.91 139.16 116.14 139.16 117.66Z" />
		</g>
	</g>
</svg>