<svg xmlns="http://www.w3.org/2000/svg" viewBox="0 0 186 171" width="186" height="171">
	<style>
		tspan { white-space:pre }
		.shp0 { fill: #0033ad } 
		.shp1 { fill: #fffdfa } 
		.shp2 { opacity: 0.2;mix-blend-mode: multiply;fill: none;stroke: #191326;stroke-width: 2.837 } 
		.shp3 { fill: #9787c9 } 
		.shp4 { fill: #483674 } 
		.shp5 { fill: #fac24b } 
		.shp6 { fill: #fc5454 } 
		.shp7 { fill: #362751 } 
		.shp8 { fill: #bbd4ff } 
	</style>
	<g id="ada">
		<path id="Layer" class="shp0" d="M46.5 91C22.44 91 3 71.56 3 47.5C3 23.44 22.44 4 46.5 4C70.56 4 90 23.44 90 47.5C90 71.56 70.56 91 46.5 91Z" />
		<path id="Layer" class="shp1" d="M45.78 21.38C47.03 20.72 48.54 22.22 47.88 23.47C47.5 24.48 46.04 24.76 45.29 23.99C44.52 23.26 44.77 21.78 45.78 21.38ZM32.41 22.84C33.16 22.53 34.13 23.21 34.05 24.03C34.13 24.93 33.04 25.59 32.27 25.16C31.23 24.76 31.35 23.09 32.41 22.83L32.41 22.84ZM59.8 25.19C58.62 25.05 58.43 23.19 59.56 22.81C60.45 22.39 61.25 23.19 61.37 24.04C61.21 24.74 60.62 25.4 59.8 25.19L59.8 25.19ZM35.44 28.52C36.71 27.73 38.5 28.92 38.31 30.38C38.24 31.86 36.29 32.73 35.16 31.72C34.1 30.92 34.27 29.11 35.44 28.52L35.44 28.52ZM54.74 29.37C55.31 27.91 57.59 27.87 58.22 29.28C58.86 30.38 58.08 31.74 56.95 32.12C55.45 32.4 54.04 30.78 54.74 29.37L54.74 29.37ZM44.16 32.03C44.14 30.78 45.29 29.84 46.47 29.77C47.24 29.93 48.11 30.26 48.44 31.06C49.08 32.17 48.51 33.67 47.38 34.17C46.87 34.45 46.25 34.35 45.69 34.31C44.82 33.88 44.09 33.06 44.16 32.03L44.16 32.03ZM24.27 33.86C25.43 33.16 26.98 34.45 26.55 35.7C26.32 36.78 24.86 37.22 24.02 36.52C23.12 35.88 23.26 34.31 24.27 33.86ZM66.99 33.86C67.98 33.11 69.58 33.98 69.46 35.2C69.53 36.33 68.12 37.18 67.15 36.59C66.1 36.12 66 34.47 66.99 33.86L66.99 33.86ZM49.76 36.09C51.38 35.51 53.28 36.21 54.2 37.65C55.42 39.41 54.77 42.09 52.88 43.1C50.93 44.3 48.09 43.29 47.36 41.1C46.56 39.15 47.76 36.71 49.76 36.1L49.76 36.09ZM40.28 36.28C42.07 35.44 44.49 36.14 45.34 37.98C46.35 39.76 45.57 42.23 43.74 43.17C41.93 44.2 39.34 43.43 38.47 41.5C37.51 39.64 38.38 37.15 40.28 36.28ZM30.79 39.53C30.93 38.38 32.01 37.62 33.11 37.55C34.29 37.69 35.25 38.61 35.37 39.81C35.3 40.98 34.38 42.16 33.11 42.14C31.75 42.28 30.53 40.89 30.79 39.53ZM58.83 37.81C60.24 36.99 62.22 38.19 62.15 39.81C62.24 41.52 60.05 42.75 58.64 41.74C57.19 40.89 57.3 38.52 58.83 37.81L58.83 37.81ZM36.43 43.9C38.1 43.45 39.98 44.23 40.8 45.76C41.69 47.29 41.32 49.42 39.95 50.55C38.17 52.2 34.9 51.54 33.96 49.28C32.85 47.19 34.17 44.44 36.43 43.9ZM54.41 43.88C56.03 43.41 57.92 44.04 58.79 45.5C59.94 47.17 59.37 49.68 57.68 50.77C55.89 52.03 53.12 51.35 52.13 49.4C50.93 47.38 52.13 44.51 54.41 43.88L54.41 43.88ZM25.75 45.81C27.19 45.26 28.79 46.84 28.2 48.27C27.85 49.57 26.01 50.04 25.07 49.1C23.97 48.18 24.39 46.18 25.75 45.81L25.75 45.81ZM64.62 47.85C64.57 46.65 65.44 45.62 66.66 45.55C67.65 45.71 68.59 46.49 68.52 47.57C68.61 48.98 66.9 49.94 65.7 49.28C65.13 49 64.85 48.41 64.62 47.85ZM18.7 46.49C19.57 46.11 20.63 46.86 20.44 47.83C20.39 48.91 18.8 49.33 18.21 48.41C17.69 47.78 18 46.81 18.7 46.49L18.7 46.49ZM73.08 46.46C73.69 46.04 74.65 46.35 74.89 47.05C75.29 47.83 74.56 48.89 73.67 48.77C72.47 48.88 72.07 47 73.08 46.46L73.08 46.46ZM41.11 51.68C43.39 51.09 45.81 52.98 45.83 55.33C45.97 57.68 43.57 59.77 41.25 59.23C39.46 58.95 38.05 57.21 38.1 55.4C38.1 53.66 39.41 52.04 41.11 51.68L41.11 51.68ZM50.09 51.68C52.39 51.05 54.91 52.98 54.86 55.35C54.98 57.68 52.65 59.7 50.37 59.23C48.23 58.95 46.65 56.6 47.24 54.53C47.57 53.14 48.72 52.01 50.09 51.68L50.09 51.68ZM32.78 53.12C34.38 52.83 35.86 54.62 35.23 56.13C34.76 57.75 32.41 58.17 31.37 56.85C30.15 55.61 31.04 53.28 32.78 53.12ZM59.11 53.19C60.52 52.6 62.29 53.82 62.17 55.37C62.22 57.07 60.08 58.24 58.69 57.25C57.12 56.34 57.4 53.73 59.11 53.19L59.11 53.19ZM66.5 60.57C65.93 59.53 66.94 58.15 68.09 58.36C68.66 58.36 69.06 58.81 69.43 59.18C69.51 59.79 69.65 60.52 69.13 60.99C68.42 61.86 66.87 61.63 66.5 60.57ZM24.27 58.64C25.36 57.94 26.91 58.99 26.65 60.24C26.53 61.35 25.12 61.98 24.2 61.37C23.22 60.81 23.24 59.16 24.27 58.64L24.27 58.64ZM45.53 60.97C46.94 60.36 48.72 61.58 48.61 63.13C48.7 64.85 46.49 66.02 45.1 65.01C43.57 64.12 43.83 61.51 45.53 60.97ZM35.68 63.27C36.87 62.64 38.5 63.74 38.38 65.08C38.43 66.19 37.34 67.13 36.24 66.96C35.35 66.94 34.76 66.14 34.45 65.36C34.5 64.52 34.83 63.58 35.68 63.27L35.68 63.27ZM55.64 63.3C56.86 62.54 58.62 63.62 58.5 65.06C58.53 66.56 56.55 67.53 55.4 66.54C54.29 65.76 54.44 63.91 55.64 63.3L55.64 63.3ZM59.11 71.85C58.57 71.03 59.21 70.02 60.1 69.83C60.81 69.97 61.58 70.51 61.42 71.33C61.3 72.49 59.66 72.82 59.11 71.85L59.11 71.85ZM31.56 71.15C31.77 70.49 32.31 69.83 33.09 70C34.22 70.07 34.55 71.78 33.56 72.3C32.67 72.91 31.66 72.09 31.56 71.15ZM44.84 71.9C45.06 70.94 46.33 70.44 47.15 70.96C47.69 71.19 47.85 71.81 47.99 72.32L47.78 73.15C47.45 73.55 47.01 73.95 46.44 73.95C45.41 74.06 44.44 72.89 44.84 71.9L44.84 71.9Z" />
		<path id="Layer" class="shp2" d="M46.5 89.58C23.23 89.58 4.42 70.77 4.42 47.5C4.42 24.23 23.23 5.42 46.5 5.42C69.77 5.42 88.58 24.23 88.58 47.5C88.58 70.77 69.77 89.58 46.5 89.58Z" />
	</g>
	<g id="Layer 1">
		<path id="&lt;Path&gt;" class="shp3" d="M186 106C186 141.9 156.9 171 121 171C85.1 171 56 141.9 56 106C56 70.1 85.1 41 121 41C156.9 41 186 70.1 186 106Z" />
		<g id="&lt;Group&gt;">
			<g id="&lt;Group&gt;">
				<path id="&lt;Path&gt;" class="shp4" d="M144.03 149.68L90.94 149.68L90.94 59.51L150.6 59.51L150.6 143.1C150.6 146.73 147.66 149.68 144.03 149.68Z" />
			</g>
			<g id="&lt;Group&gt;">
				<path id="&lt;Path&gt;" class="shp5" d="M112.8 116.91L108.46 116.91L108.46 112.57L103.88 112.57L103.88 116.91L99.54 116.91L99.54 121.48L103.88 121.48L103.88 125.82L108.46 125.82L108.46 121.48L112.8 121.48L112.8 116.91Z" />
			</g>
			<path id="&lt;Path&gt;" class="shp6" d="M132.22 125.94L129.54 125.94C128.76 125.94 128.12 125.3 128.12 124.52L128.12 121.84C128.12 121.06 128.76 120.42 129.54 120.42L132.22 120.42C133.01 120.42 133.64 121.06 133.64 121.84L133.64 124.52C133.64 125.3 133.01 125.94 132.22 125.94Z" />
			<path id="&lt;Path&gt;" class="shp7" d="M99.57 99.94L99.57 69.84C99.57 69 100.25 68.32 101.09 68.32L141.45 68.32C142.29 68.32 142.97 69 142.97 69.84L142.97 99.94C142.97 100.78 142.29 101.46 141.45 101.46L101.09 101.46C100.25 101.46 99.57 100.78 99.57 99.94Z" />
			<path id="&lt;Path&gt;" class="shp7" d="M138.27 97.68L104.27 97.68C103.77 97.68 103.36 97.27 103.36 96.77L103.36 73.01C103.36 72.51 103.77 72.1 104.27 72.1L138.27 72.1C138.77 72.1 139.18 72.51 139.18 73.01L139.18 96.77C139.18 97.27 138.77 97.68 138.27 97.68Z" />
			<path id="&lt;Path&gt;" class="shp8" d="M104.94 97.68L116.79 97.68L139.18 75.29L139.18 73.67C139.17 72.81 138.48 72.11 137.62 72.1L125.4 72.1L103.36 94.14L103.36 96.1C103.36 96.97 104.07 97.68 104.94 97.68Z" />
			<path id="&lt;Path&gt;" class="shp8" d="M139.16 85.27L126.75 97.68L134.98 97.68L139.16 93.5L139.16 85.27Z" />
			<path id="&lt;Compound Path&gt;" fill-rule="evenodd" class="shp7" d="M151.62 61.32L151.62 140.62C151.62 147.71 145.87 153.47 138.78 153.47L92.95 153.47C91.45 153.47 90.24 152.25 90.24 150.76L90.24 61.32C90.24 59.83 91.45 58.62 92.95 58.62L148.92 58.62C150.41 58.62 151.62 59.83 151.62 61.32ZM147.84 64.89C147.84 63.52 146.72 62.4 145.35 62.4L96.52 62.4C95.14 62.4 94.03 63.52 94.03 64.89L94.03 147.19C94.03 148.57 95.14 149.68 96.52 149.68L138.05 149.68C143.46 149.68 147.84 145.3 147.84 139.89L147.84 64.89Z" />
			<path id="&lt;Path&gt;" class="shp6" d="M139.16 117.66C139.16 119.19 137.92 120.42 136.4 120.42C134.87 120.42 133.64 119.19 133.64 117.66C133.64 116.14 134.87 114.91 136.4 114.91C137.92 114.91 139.16 116.14 139.16 117.66Z" />
		</g>
	</g>
</svg>