<svg xmlns="http://www.w3.org/2000/svg" viewBox="0 0 186 171" width="186" height="171">
	<style>
		tspan { white-space:pre }
		.shp0 { fill: #f0b90b } 
		.shp1 { fill: #fffdfa } 
		.shp2 { opacity: 0.102;mix-blend-mode: multiply;fill: none;stroke: #191326;stroke-width: 3 } 
	</style>
	<g id="BNB">
		<path id="Layer" class="shp0" d="M93.5 149C58.39 149 30 120.61 30 85.5C30 50.39 58.39 22 93.5 22C128.61 22 157 50.39 157 85.5C157 120.61 128.61 149 93.5 149Z" />
		<path id="Layer" fill-rule="evenodd" class="shp1" d="M69.82 85.5L60.1 95.28L50.32 85.5L60.1 75.72L69.82 85.5ZM76.84 78.55L67.05 68.77L93.5 42.32L103.29 52.1L120.02 68.77L110.23 78.55L93.5 61.82L76.84 78.55ZM136.68 85.5L126.97 95.28L117.18 85.5L126.9 75.72L136.68 85.5ZM110.23 92.45L120.02 102.16L93.5 128.68L67.05 102.23L76.77 92.45L93.5 109.18L110.23 92.45ZM93.5 95.28L83.72 85.5L93.5 75.72L103.28 85.5L93.5 95.28Z" />
		<path id="Layer" class="shp2" d="M93.5 145.71C60.21 145.71 33.29 118.79 33.29 85.5C33.29 52.21 60.21 25.29 93.5 25.29C126.79 25.29 153.71 52.21 153.71 85.5C153.71 118.79 126.79 145.71 93.5 145.71Z" />
	</g>
</svg>